<svg width="12" height="26" viewBox="0 0 12 26" fill="none" xmlns="http://www.w3.org/2000/svg">
<path d="M11.11 17.23C11.11 18.55 10.67 19.68 9.79 20.62C8.91 21.54 7.68 22.1 6.1 22.3V25.24C6.1 25.38 6 25.45 5.8 25.45C5.58 25.45 5.47 25.38 5.47 25.24V22.36H4.93C3.39 22.36 1.98 22.01 0.7 21.31C0.6 21.25 0.53 21.18 0.49 21.1C0.47 21.02 0.45 20.9 0.43 20.74L0.0400001 16.66C0.0200001 16.58 0.0600001 16.53 0.16 16.51C0.28 16.49 0.35 16.52 0.37 16.6C0.69 18.02 1.27 19.25 2.11 20.29C2.95 21.31 4.07 21.84 5.47 21.88V13.33L4.81 12.94C3.85 12.36 3.09 11.86 2.53 11.44C1.99 11.02 1.53 10.49 1.15 9.85C0.77 9.21 0.58 8.46 0.58 7.6C0.58 6.24 1.05 5.16 1.99 4.36C2.95 3.56 4.11 3.09 5.47 2.95V0.429999C5.47 0.349999 5.5 0.289999 5.56 0.249999C5.62 0.209999 5.7 0.189998 5.8 0.189998C5.88 0.189998 5.95 0.209999 6.01 0.249999C6.07 0.289999 6.1 0.349999 6.1 0.429999V2.92H6.16C7.34 2.92 8.51 3.16 9.67 3.64C9.97 3.74 10.12 3.91 10.12 4.15L10.33 7.6C10.33 7.68 10.28 7.72 10.18 7.72C10.08 7.72 10.02 7.68 10 7.6C9.84 6.62 9.44 5.7 8.8 4.84C8.18 3.98 7.28 3.5 6.1 3.4V11.44C6.14 11.48 6.3 11.58 6.58 11.74C7.62 12.36 8.43 12.88 9.01 13.3C9.59 13.72 10.08 14.26 10.48 14.92C10.9 15.56 11.11 16.33 11.11 17.23ZM2.35 6.76C2.35 7.7 2.62 8.5 3.16 9.16C3.7 9.8 4.47 10.43 5.47 11.05V3.37C4.43 3.41 3.65 3.76 3.13 4.42C2.61 5.06 2.35 5.84 2.35 6.76ZM6.1 21.85C7 21.77 7.74 21.46 8.32 20.92C8.9 20.36 9.19 19.53 9.19 18.43C9.19 17.35 8.92 16.46 8.38 15.76C7.84 15.04 7.08 14.36 6.1 13.72V21.85Z" fill="#292E36"/>
</svg>
